<svg width="162" height="122" viewBox="0 0 162 122" fill="none" xmlns="http://www.w3.org/2000/svg">
<mask id="mask0" mask-type="alpha" maskUnits="userSpaceOnUse" x="0" y="0" width="162" height="122">
<path d="M6 6V0C2.68629 0 0 2.68629 0 6L6 6ZM156 6H162C162 2.68629 159.314 0 156 0V6ZM156 116V122C159.314 122 162 119.314 162 116H156ZM6 116H0C0 119.314 2.68629 122 6 122L6 116ZM81 77.8182L76.8503 82.1518C79.1706 84.3737 82.8294 84.3737 85.1497 82.1518L81 77.8182ZM150 6V116H162V6H150ZM12 116V6H0V116H12ZM156 110H81V122H156V110ZM81 110H6V122H81V110ZM6 12H81V0H6V12ZM81 12H156V0H81V12ZM10.036 120.44L68.9646 66.8682L60.8925 57.9889L1.96396 111.56L10.036 120.44ZM1.85028 10.3336L60.7788 66.7621L69.0783 58.095L10.1497 1.66643L1.85028 10.3336ZM60.7788 66.7621L76.8503 82.1518L85.1497 73.4846L69.0783 58.095L60.7788 66.7621ZM93.0354 66.8682L151.964 120.44L160.036 111.56L101.107 57.9889L93.0354 66.8682ZM151.85 1.66643L92.9217 58.095L101.221 66.7621L160.15 10.3336L151.85 1.66643ZM92.9217 58.095L76.8503 73.4846L85.1497 82.1518L101.221 66.7621L92.9217 58.095Z" fill="black"/>
</mask>
<g mask="url(#mask0)">
<rect x="-2.57141" y="-0.0550461" width="167.143" height="122.11" rx="28" fill="#CFCFCF"/>
</g>
</svg>
